<svg xmlns="http://www.w3.org/2000/svg" width="96" height="96" viewBox="0 0 96 96">
  <circle cx="48" cy="48" r="44" fill="#ffffff"/>
  <path d="M48 20c7 0 13 2 18 7l-9 9c-2-2-6-4-9-4-8 0-15 5-18 12l-11-8c5-10 16-16 29-16z" fill="#34a853"/>
  <path d="M19 36l11 8c-1 3-1 6 0 9l-11 8c-4-8-4-17 0-25z" fill="#fbbc05"/>
  <path d="M30 53c3 7 10 12 18 12 6 0 11-2 14-6l11 8c-6 7-14 11-25 11-13 0-24-7-29-17z" fill="#ea4335"/>
  <path d="M73 67l-11-8c2-2 3-5 4-8H48V39h31c1 11-1 20-6 28z" fill="#4285f4"/>
</svg>
