<svg xmlns="http://www.w3.org/2000/svg" width="512" height="512" viewBox="0 0 512 512">
  <defs>
    <linearGradient id="bg" x1="0" y1="0" x2="1" y2="1">
      <stop offset="0" stop-color="#f8fbf7"/>
      <stop offset="1" stop-color="#e4eee7"/>
    </linearGradient>
    <linearGradient id="board" x1="0" y1="0" x2="1" y2="1">
      <stop offset="0" stop-color="#6b3f23"/>
      <stop offset="1" stop-color="#2d2018"/>
    </linearGradient>
  </defs>
  <rect width="512" height="512" rx="44" fill="url(#bg)"/>
  <rect x="82" y="126" width="348" height="240" rx="28" fill="url(#board)" transform="rotate(-4 256 246)"/>
  <g fill="none" stroke="#143d2a" stroke-width="8" stroke-linecap="round">
    <path d="M134 278c54-70 116-104 187-105"/>
    <path d="M150 306c76-68 150-101 222-99"/>
    <path d="M176 336c72-52 139-74 201-66"/>
  </g>
  <g fill="#60a96b">
    <ellipse cx="211" cy="231" rx="18" ry="38" transform="rotate(-42 211 231)"/>
    <ellipse cx="248" cy="215" rx="18" ry="40" transform="rotate(-30 248 215)"/>
    <ellipse cx="288" cy="201" rx="20" ry="44" transform="rotate(-16 288 201)"/>
    <ellipse cx="327" cy="200" rx="17" ry="40" transform="rotate(12 327 200)"/>
    <ellipse cx="205" cy="274" rx="17" ry="38" transform="rotate(-53 205 274)"/>
    <ellipse cx="252" cy="261" rx="18" ry="40" transform="rotate(-35 252 261)"/>
    <ellipse cx="302" cy="252" rx="19" ry="42" transform="rotate(-7 302 252)"/>
    <ellipse cx="350" cy="262" rx="17" ry="38" transform="rotate(21 350 262)"/>
    <ellipse cx="234" cy="318" rx="18" ry="39" transform="rotate(-49 234 318)"/>
    <ellipse cx="286" cy="300" rx="18" ry="40" transform="rotate(-18 286 300)"/>
    <ellipse cx="339" cy="302" rx="19" ry="40" transform="rotate(16 339 302)"/>
  </g>
  <circle cx="147" cy="168" r="13" fill="#fc8f34"/>
  <circle cx="376" cy="344" r="18" fill="#fc8f34"/>
  <circle cx="392" cy="157" r="9" fill="#ffdcbc"/>
</svg>
