<svg xmlns="http://www.w3.org/2000/svg" width="768" height="512" viewBox="0 0 768 512">
  <defs>
    <linearGradient id="dark" x1="0" y1="0" x2="1" y2="1">
      <stop offset="0" stop-color="#151818"/>
      <stop offset="1" stop-color="#33312e"/>
    </linearGradient>
    <linearGradient id="toast" x1="0" y1="0" x2="0" y2="1">
      <stop offset="0" stop-color="#d5964e"/>
      <stop offset="1" stop-color="#7a421b"/>
    </linearGradient>
  </defs>
  <rect width="768" height="512" fill="url(#dark)"/>
  <ellipse cx="384" cy="393" rx="254" ry="40" fill="#000000" opacity=".28"/>
  <path d="M206 280c0-83 58-136 178-136s178 53 178 136v86H206z" fill="url(#toast)"/>
  <rect x="206" y="265" width="356" height="128" rx="24" fill="#9f612b"/>
  <path d="M242 270c77-41 185-45 284 0v93H242z" fill="#5b9d55"/>
  <path d="M270 292c65-28 153-30 228 0" fill="none" stroke="#7fc66f" stroke-width="20" stroke-linecap="round"/>
  <ellipse cx="384" cy="235" rx="117" ry="82" fill="#fffdfa"/>
  <ellipse cx="384" cy="235" rx="43" ry="42" fill="#f7b41f"/>
  <circle cx="384" cy="235" r="23" fill="#ffcc38"/>
  <g fill="#f8f4ee" opacity=".7">
    <circle cx="304" cy="205" r="8"/>
    <circle cx="456" cy="202" r="7"/>
    <circle cx="448" cy="272" r="5"/>
  </g>
  <rect x="626" y="44" width="60" height="32" rx="16" fill="#ffffff"/>
  <text x="656" y="67" text-anchor="middle" font-size="19" font-family="Arial" font-weight="700" fill="#693d00">4.8</text>
</svg>
